<svg width="53" height="52" viewBox="0 0 53 52" fill="none" xmlns="http://www.w3.org/2000/svg">
<path d="M27.1168 33.1465C27.0531 33.0216 27.0046 32.9254 26.9548 32.8299C26.3416 31.653 24.8641 30.8887 23.5521 31.0695C22.4255 31.2246 21.4868 32.1613 21.157 33.4837C20.8015 34.9097 21.0582 36.2844 21.5711 37.621C22.4078 39.8006 23.7327 41.6648 25.3646 43.3145C26.4932 44.4553 27.3934 44.436 28.5042 43.2754C30.0465 41.6638 31.2981 39.8544 32.1664 37.7921C32.6783 36.5771 33.0551 35.3256 33.1123 33.9969C33.1537 33.0373 33.03 32.1131 32.4838 31.2894C31.7901 30.2435 30.649 29.9353 29.5267 30.4875C28.829 30.8308 28.2775 31.3435 27.842 31.9793C27.5924 32.3439 27.3743 32.7298 27.1168 33.1465ZM48.8379 39.2735C48.8123 41.0707 48.4073 42.7828 47.5798 44.3736C46.1754 47.0727 44.1438 49.1647 41.4239 50.5671C38.7428 51.9494 35.9952 52.1076 33.1877 51.0071C32.0481 50.5602 30.9118 50.0988 29.8007 49.5867C27.7818 48.6558 25.7714 48.6647 23.7068 49.4379C22.2567 49.981 20.785 50.4762 19.2981 50.9063C17.7581 51.3519 16.1729 51.5147 14.5661 51.3313C13.1771 51.1729 12.0037 50.5577 10.987 49.6266C9.69027 48.4393 8.65265 47.0529 7.99793 45.4179C7.1588 43.3226 7.3604 41.3012 8.58211 39.392C9.53853 37.8972 10.8299 36.7046 12.0809 35.4708C12.9903 34.574 13.8805 33.6531 14.7182 32.6897C15.6846 31.5778 16.2618 30.2361 16.7401 28.8576C17.1842 27.5787 17.5874 26.2857 18.0257 25.0047C18.3423 24.0792 18.9233 23.3094 19.4974 22.5291C20.8794 20.6509 22.8508 19.829 25.0276 19.3453C27.6079 18.7717 29.8566 19.5113 31.7754 21.2085C32.9561 22.2526 33.9781 23.4757 35.0771 24.613C36.9489 26.5501 38.9345 28.3592 41.1591 29.8873C42.2664 30.648 43.4286 31.3298 44.5267 32.1027C46.098 33.2087 47.4236 34.5507 48.2326 36.3321C48.6564 37.2653 48.8237 38.2543 48.8379 39.2735Z" fill="#332C22"/>
<path d="M23.5026 12.6257C23.5069 14.0643 23.252 15.6178 22.5702 17.0773C21.8407 18.6383 20.7852 19.8731 19.0495 20.3535C17.6212 20.7491 16.3026 20.4305 15.0734 19.6626C13.4563 18.6528 12.3627 17.1872 11.5493 15.5017C10.3683 13.0538 9.91309 10.4642 10.1552 7.75802C10.2982 6.1594 10.7502 4.66514 11.6434 3.30599C13.1837 0.962106 15.9522 0.299619 18.3596 1.72593C19.9214 2.65137 21.0155 4.00237 21.8473 5.58043C22.9811 7.73101 23.5211 10.0311 23.5026 12.6257Z" fill="#332C22"/>
<path d="M40.3136 8.33957C40.3162 11.2708 39.7751 13.7302 38.4418 15.9804C37.6963 17.2388 36.7428 18.3098 35.4245 18.9987C33.4975 20.0057 31.3761 19.6368 29.8633 18.062C28.6658 16.8155 28.016 15.2981 27.6679 13.6375C27.0667 10.7666 27.3769 7.96218 28.3936 5.23445C28.8857 3.91427 29.6045 2.70612 30.6377 1.7315C31.5896 0.83343 32.6744 0.129985 34.0259 0.0177295C35.7454 -0.125097 37.0955 0.603662 38.1749 1.89167C39.2873 3.21928 39.8429 4.79368 40.1186 6.47421C40.2374 7.19881 40.2732 7.93704 40.3136 8.33957Z" fill="#332C22"/>
<path d="M0 22.4697C0.0237918 21.1605 0.273644 19.9298 1.05202 18.8621C2.069 17.4666 3.49287 16.9519 5.17513 17.0573C6.87729 17.1639 8.32628 17.8992 9.62721 18.9365C11.9445 20.7842 13.477 23.1431 14.0867 26.0618C14.3566 27.353 14.3767 28.6563 13.9249 29.914C13.1484 32.0763 11.377 33.193 9.06822 33.0142C7.63185 32.903 6.36756 32.3287 5.2075 31.5111C2.70693 29.7484 1.09699 27.3525 0.281794 24.4238C0.106771 23.7951 0.0897841 23.1222 0 22.4697Z" fill="#332C22"/>
<path d="M52.6109 18.386C52.2235 22.4521 50.5692 25.5953 47.3613 27.8592C46.4703 28.4879 45.4683 28.8518 44.374 28.9628C42.5234 29.1504 40.8407 28.1086 40.145 26.3259C39.5336 24.7587 39.5691 23.155 39.9538 21.5594C40.694 18.488 42.3449 16.007 44.9394 14.1882C46.0879 13.3831 47.391 13.0544 48.7921 13.1713C50.4209 13.3072 51.7979 14.5293 52.274 16.3265C52.4665 17.0532 52.5213 17.8159 52.6109 18.386Z" fill="#332C22"/>
</svg>
