<svg width="0" height="0" class="hidden">
<!-- logo -->
  <symbol id="logo" fill="none" xmlns="http://www.w3.org/2000/svg" viewBox="0 0 158 52">
    <path d="M27.1168 33.1465C27.0531 33.0216 27.0046 32.9254 26.9548 32.8299C26.3416 31.653 24.8641 30.8887 23.5521 31.0695C22.4255 31.2246 21.4868 32.1613 21.157 33.4837C20.8015 34.9097 21.0582 36.2844 21.5711 37.621C22.4078 39.8006 23.7327 41.6648 25.3646 43.3145C26.4932 44.4553 27.3934 44.436 28.5042 43.2754C30.0465 41.6638 31.2981 39.8544 32.1664 37.7921C32.6783 36.5771 33.0551 35.3256 33.1123 33.9969C33.1537 33.0373 33.03 32.1131 32.4838 31.2894C31.7901 30.2435 30.649 29.9353 29.5267 30.4875C28.829 30.8308 28.2775 31.3435 27.842 31.9793C27.5924 32.3439 27.3743 32.7298 27.1168 33.1465ZM48.8379 39.2735C48.8123 41.0707 48.4073 42.7828 47.5798 44.3736C46.1754 47.0727 44.1438 49.1647 41.4239 50.5671C38.7428 51.9494 35.9952 52.1076 33.1877 51.0071C32.0481 50.5602 30.9118 50.0988 29.8007 49.5867C27.7818 48.6558 25.7714 48.6647 23.7068 49.4379C22.2567 49.981 20.785 50.4762 19.2981 50.9063C17.7581 51.3519 16.1729 51.5147 14.5661 51.3313C13.1771 51.1729 12.0037 50.5577 10.987 49.6266C9.69027 48.4393 8.65265 47.0529 7.99793 45.4179C7.1588 43.3226 7.3604 41.3012 8.58211 39.392C9.53853 37.8972 10.8299 36.7046 12.0809 35.4708C12.9903 34.574 13.8805 33.6531 14.7182 32.6897C15.6846 31.5778 16.2618 30.2361 16.7401 28.8576C17.1842 27.5787 17.5874 26.2857 18.0257 25.0047C18.3423 24.0792 18.9233 23.3094 19.4974 22.5291C20.8794 20.6509 22.8508 19.829 25.0276 19.3453C27.6079 18.7717 29.8566 19.5113 31.7754 21.2085C32.9561 22.2526 33.9781 23.4757 35.0771 24.613C36.9489 26.5501 38.9345 28.3592 41.1591 29.8873C42.2664 30.648 43.4286 31.3298 44.5267 32.1027C46.098 33.2087 47.4236 34.5507 48.2326 36.3321C48.6564 37.2653 48.8237 38.2543 48.8379 39.2735Z" fill="#332C22"></path>
    <path d="M23.5026 12.6257C23.5069 14.0643 23.252 15.6178 22.5702 17.0773C21.8407 18.6383 20.7852 19.8731 19.0495 20.3535C17.6212 20.7491 16.3026 20.4305 15.0734 19.6626C13.4563 18.6528 12.3627 17.1872 11.5493 15.5017C10.3683 13.0538 9.91309 10.4642 10.1552 7.75802C10.2982 6.1594 10.7502 4.66514 11.6434 3.30599C13.1837 0.962106 15.9522 0.299619 18.3596 1.72593C19.9214 2.65137 21.0155 4.00237 21.8473 5.58043C22.9811 7.73101 23.5211 10.0311 23.5026 12.6257Z" fill="#332C22"></path>
    <path d="M40.3136 8.33957C40.3162 11.2708 39.7751 13.7302 38.4418 15.9804C37.6963 17.2388 36.7428 18.3098 35.4245 18.9987C33.4975 20.0057 31.3761 19.6368 29.8633 18.062C28.6658 16.8155 28.016 15.2981 27.6679 13.6375C27.0667 10.7666 27.3769 7.96218 28.3936 5.23445C28.8857 3.91427 29.6045 2.70612 30.6377 1.7315C31.5896 0.83343 32.6744 0.129985 34.0259 0.0177295C35.7454 -0.125097 37.0955 0.603662 38.1749 1.89167C39.2873 3.21928 39.8429 4.79368 40.1186 6.47421C40.2374 7.19881 40.2732 7.93704 40.3136 8.33957Z" fill="#332C22"></path>
    <path d="M0 22.4697C0.0237918 21.1605 0.273644 19.9298 1.05202 18.8621C2.069 17.4666 3.49287 16.9519 5.17513 17.0573C6.87729 17.1639 8.32628 17.8992 9.62721 18.9365C11.9445 20.7842 13.477 23.1431 14.0867 26.0618C14.3566 27.353 14.3767 28.6563 13.9249 29.914C13.1484 32.0763 11.377 33.193 9.06822 33.0142C7.63185 32.903 6.36756 32.3287 5.2075 31.5111C2.70693 29.7484 1.09699 27.3525 0.281794 24.4238C0.106771 23.7951 0.0897841 23.1222 0 22.4697Z" fill="#332C22"></path>
    <path d="M52.6109 18.386C52.2235 22.4521 50.5692 25.5953 47.3613 27.8592C46.4703 28.4879 45.4683 28.8518 44.374 28.9628C42.5234 29.1504 40.8407 28.1086 40.145 26.3259C39.5336 24.7587 39.5691 23.155 39.9538 21.5594C40.694 18.488 42.3449 16.007 44.9394 14.1882C46.0879 13.3831 47.391 13.0544 48.7921 13.1713C50.4209 13.3072 51.7979 14.5293 52.274 16.3265C52.4665 17.0532 52.5213 17.8159 52.6109 18.386Z" fill="#332C22"></path>
    <path d="M128.88 31.8726H132.623L127.688 37.844L133.057 44.3279H129.203L124.112 38.0111V44.3279H120.714V31.8726H124.112V37.922L128.88 31.8726Z" fill="#332C22"></path>
    <path d="M118.364 38.078C118.364 39.1178 118.222 40.0387 117.94 40.8409C117.665 41.643 117.261 42.3226 116.726 42.8796C116.199 43.4292 115.56 43.8451 114.81 44.1273C114.067 44.4096 113.228 44.5507 112.292 44.5507C111.416 44.5507 110.61 44.4096 109.874 44.1273C109.147 43.8451 108.512 43.4292 107.969 42.8796C107.435 42.3226 107.019 41.643 106.722 40.8409C106.432 40.0387 106.287 39.1178 106.287 38.078C106.287 36.6965 106.532 35.5268 107.022 34.5687C107.513 33.6106 108.211 32.8827 109.117 32.3851C110.023 31.8875 111.104 31.6387 112.359 31.6387C113.525 31.6387 114.557 31.8875 115.456 32.3851C116.362 32.8827 117.071 33.6106 117.584 34.5687C118.104 35.5268 118.364 36.6965 118.364 38.078ZM109.752 38.078C109.752 38.895 109.841 39.582 110.019 40.139C110.197 40.696 110.476 41.1157 110.855 41.3979C111.234 41.6801 111.727 41.8212 112.336 41.8212C112.938 41.8212 113.425 41.6801 113.796 41.3979C114.175 41.1157 114.449 40.696 114.62 40.139C114.799 39.582 114.888 38.895 114.888 38.078C114.888 37.2536 114.799 36.5703 114.62 36.0281C114.449 35.4785 114.175 35.0663 113.796 34.7915C113.417 34.5167 112.923 34.3793 112.314 34.3793C111.416 34.3793 110.762 34.6875 110.353 35.304C109.952 35.9204 109.752 36.8451 109.752 38.078Z" fill="#332C22"></path>
    <path d="M103.936 31.8726V44.3279H100.527V34.4238H96.0147V44.3279H92.6168V31.8726H103.936Z" fill="#332C22"></path>
    <path d="M84.3821 31.6164C86.0532 31.6164 87.3344 31.9803 88.2257 32.7082C89.1169 33.436 89.5625 34.5427 89.5625 36.0281V44.3279H87.1896L86.5323 42.6345H86.4432C86.0867 43.0801 85.7227 43.444 85.3514 43.7263C84.98 44.0085 84.553 44.2165 84.0702 44.3501C83.5874 44.4838 83.0007 44.5507 82.31 44.5507C81.5747 44.5507 80.9137 44.4096 80.3269 44.1273C79.7476 43.8451 79.2909 43.4143 78.9566 42.835C78.6224 42.2483 78.4553 41.5056 78.4553 40.6069C78.4553 39.2849 78.9195 38.3119 79.8479 37.6881C80.7763 37.0567 82.1689 36.7077 84.0256 36.6408L86.1869 36.574V36.0281C86.1869 35.3745 86.0161 34.8955 85.6744 34.591C85.3328 34.2864 84.8575 34.1342 84.2484 34.1342C83.6469 34.1342 83.0564 34.2196 82.4771 34.3904C81.8978 34.5612 81.3185 34.7766 80.7392 35.0366L79.6139 32.7416C80.275 32.3925 81.014 32.1177 81.8309 31.9172C82.6553 31.7167 83.5057 31.6164 84.3821 31.6164ZM86.1869 38.557L84.8723 38.6016C83.7731 38.6313 83.0081 38.8281 82.5774 39.192C82.154 39.556 81.9423 40.035 81.9423 40.6292C81.9423 41.1491 82.0946 41.5204 82.3991 41.7432C82.7036 41.9586 83.101 42.0663 83.5912 42.0663C84.319 42.0663 84.9317 41.8509 85.4294 41.4202C85.9344 40.9894 86.1869 40.3767 86.1869 39.582V38.557Z" fill="#332C22"></path>
    <path d="M75.8928 44.3279H72.4503V30.9146H68.462C68.3729 31.6128 68.2763 32.374 68.1723 33.1984C68.0684 34.0228 67.9607 34.8547 67.8493 35.6939C67.7379 36.5332 67.619 37.3316 67.4928 38.0892C67.3739 38.8467 67.2551 39.5115 67.1363 40.0833C66.9432 41.034 66.6795 41.8436 66.3453 42.512C66.0185 43.173 65.5692 43.6781 64.9973 44.0271C64.4328 44.3762 63.6938 44.5507 62.7803 44.5507C62.4758 44.5507 62.1824 44.5285 61.9002 44.4839C61.6254 44.4393 61.3691 44.3799 61.1315 44.3056V41.4759C61.3246 41.5428 61.5177 41.5985 61.7108 41.643C61.9039 41.6802 62.1156 41.6987 62.3458 41.6987C62.6429 41.6987 62.888 41.6022 63.0811 41.4091C63.2816 41.2086 63.4599 40.8706 63.6158 40.3953C63.7718 39.9125 63.9278 39.2478 64.0837 38.4011C64.1506 38.0298 64.2397 37.5062 64.3511 36.8303C64.4625 36.147 64.5888 35.3486 64.7299 34.4351C64.871 33.5141 65.0158 32.5114 65.1644 31.4271C65.3203 30.3427 65.4689 29.2138 65.61 28.0403H75.8928V44.3279Z" fill="#332C22"></path>
    <path d="M152.421 10.757C154.092 10.757 155.373 11.1209 156.264 11.8487C157.156 12.5766 157.601 13.6832 157.601 15.1686V23.4684H155.228L154.571 21.775H154.482C154.125 22.2207 153.762 22.5846 153.39 22.8668C153.019 23.1491 152.592 23.357 152.109 23.4907C151.626 23.6244 151.04 23.6912 150.349 23.6912C149.614 23.6912 148.953 23.5501 148.366 23.2679C147.786 22.9857 147.33 22.5549 146.995 21.9756C146.661 21.3888 146.494 20.6461 146.494 19.7474C146.494 18.4254 146.958 17.4525 147.887 16.8286C148.815 16.1973 150.208 15.8482 152.064 15.7814L154.226 15.7145V15.1686C154.226 14.5151 154.055 14.036 153.713 13.7315C153.372 13.427 152.896 13.2747 152.287 13.2747C151.686 13.2747 151.095 13.3602 150.516 13.531C149.937 13.7018 149.357 13.9172 148.778 14.1771L147.653 11.8822C148.314 11.5331 149.053 11.2583 149.87 11.0578C150.694 10.8572 151.545 10.757 152.421 10.757ZM154.226 17.6976L152.911 17.7421C151.812 17.7718 151.047 17.9687 150.616 18.3326C150.193 18.6965 149.981 19.1756 149.981 19.7697C149.981 20.2896 150.133 20.661 150.438 20.8838C150.742 21.0992 151.14 21.2069 151.63 21.2069C152.358 21.2069 152.971 20.9915 153.468 20.5607C153.973 20.1299 154.226 19.5172 154.226 18.7225V17.6976Z" fill="#332C22"></path>
    <path d="M141.814 11.0132H145.557L140.622 16.9846L145.992 23.4684H142.137L137.046 17.1517V23.4684H133.648V11.0132H137.046V17.0625L141.814 11.0132Z" fill="#332C22"></path>
    <path d="M122.397 11.0132V15.8037H127.143V11.0132H130.541V23.4684H127.143V18.3326H122.397V23.4684H118.999V11.0132H122.397Z" fill="#332C22"></path>
    <path d="M106.297 11.0132V15.9373C106.297 16.1899 106.286 16.5092 106.264 16.8954C106.249 17.2742 106.227 17.6604 106.197 18.0541C106.167 18.4477 106.138 18.8005 106.108 19.1124C106.078 19.4244 106.056 19.636 106.041 19.7474L111.79 11.0132H115.878V23.4684H112.592V18.4997C112.592 18.0912 112.607 17.6419 112.636 17.1517C112.666 16.6541 112.699 16.1861 112.737 15.748C112.774 15.3098 112.8 14.9792 112.814 14.7564L107.088 23.4684H103.011V11.0132H106.297Z" fill="#332C22"></path>
    <path d="M101.14 13.5644H97.0624V23.4684H93.6645V13.5644H89.5759V11.0132H101.14V13.5644Z" fill="#332C22"></path>
    <path d="M82.6014 10.757C84.2725 10.757 85.5536 11.1209 86.4449 11.8487C87.3361 12.5766 87.7818 13.6832 87.7818 15.1686V23.4684H85.4088L84.7515 21.775H84.6624C84.3059 22.2207 83.942 22.5846 83.5706 22.8668C83.1993 23.1491 82.7722 23.357 82.2894 23.4907C81.8067 23.6244 81.2199 23.6912 80.5292 23.6912C79.7939 23.6912 79.1329 23.5501 78.5462 23.2679C77.9669 22.9857 77.5101 22.5549 77.1759 21.9756C76.8417 21.3888 76.6746 20.6461 76.6746 19.7474C76.6746 18.4254 77.1388 17.4525 78.0671 16.8286C78.9955 16.1973 80.3881 15.8482 82.2449 15.7814L84.4062 15.7145V15.1686C84.4062 14.5151 84.2353 14.036 83.8937 13.7315C83.552 13.427 83.0767 13.2747 82.4677 13.2747C81.8661 13.2747 81.2756 13.3602 80.6963 13.531C80.117 13.7018 79.5377 13.9172 78.9584 14.1771L77.8332 11.8822C78.4942 11.5331 79.2332 11.2583 80.0502 11.0578C80.8746 10.8572 81.725 10.757 82.6014 10.757ZM84.4062 17.6976L83.0916 17.7421C81.9924 17.7718 81.2274 17.9687 80.7966 18.3326C80.3732 18.6965 80.1616 19.1756 80.1616 19.7697C80.1616 20.2896 80.3138 20.661 80.6183 20.8838C80.9229 21.0992 81.3202 21.2069 81.8104 21.2069C82.5382 21.2069 83.151 20.9915 83.6486 20.5607C84.1536 20.1299 84.4062 19.5172 84.4062 18.7225V17.6976Z" fill="#332C22"></path>
    <path d="M76.1729 23.4685H72.2291L68.4413 17.3077L64.6535 23.4685H60.9548L66.358 15.0684L61.3002 7.18088H65.1103L68.6196 13.0408L72.062 7.18088H75.783L70.6695 15.2578L76.1729 23.4685Z" fill="#332C22"></path>
  </symbol>
<!-- Header -->
  <symbol id="menu" fill="none" xmlns="http://www.w3.org/2000/svg" viewBox="0 0 24 24">
    <path d="M3.70234 18.2212C3.46184 18.2212 3.25975 18.139 3.09609 17.9745C2.93242 17.81 2.85059 17.6049 2.85059 17.3592C2.85059 17.1176 2.93242 16.9159 3.09609 16.7542C3.25975 16.5927 3.46184 16.512 3.70234 16.512H20.2978C20.5383 16.512 20.7414 16.5942 20.9071 16.7587C21.0728 16.9232 21.1556 17.1263 21.1556 17.368C21.1556 17.6137 21.0728 17.8172 20.9071 17.9787C20.7414 18.1404 20.5383 18.2212 20.2978 18.2212H3.70234ZM3.70234 12.8517C3.46184 12.8517 3.25975 12.7694 3.09609 12.6047C2.93242 12.4402 2.85059 12.2372 2.85059 11.9955C2.85059 11.754 2.93242 11.5524 3.09609 11.3907C3.25975 11.2291 3.46184 11.1482 3.70234 11.1482H20.2978C20.5383 11.1482 20.7414 11.2306 20.9071 11.3952C21.0728 11.5597 21.1556 11.7628 21.1556 12.0045C21.1556 12.246 21.0728 12.4476 20.9071 12.6092C20.7414 12.7709 20.5383 12.8517 20.2978 12.8517H3.70234ZM3.70234 7.488C3.46184 7.488 3.25975 7.40575 3.09609 7.24125C2.93242 7.07675 2.85059 6.87166 2.85059 6.626C2.85059 6.38433 2.93242 6.18275 3.09609 6.02125C3.25975 5.85958 3.46184 5.77875 3.70234 5.77875H20.2978C20.5383 5.77875 20.7414 5.861 20.9071 6.0255C21.0728 6.19 21.1556 6.39308 21.1556 6.63475C21.1556 6.88041 21.0728 7.08408 20.9071 7.24575C20.7414 7.40725 20.5383 7.488 20.2978 7.488H3.70234Z" fill="#02060A"></path>
  </symbol>
  <!-- Mobile menu -->
  <symbol id="close" fill="none" xmlns="http://www.w3.org/2000/svg" viewBox="0 0 24 24">
    <path d="M17.5996 5.92499C17.7639 5.92499 17.8659 5.97349 17.9463 6.05389C18.0265 6.1342 18.0751 6.23569 18.0752 6.3996C18.0752 6.5638 18.0266 6.66589 17.9463 6.74628L12.6924 12.0002L13.0459 12.3537L17.9463 17.2531C18.0267 17.3335 18.0752 17.4356 18.0752 17.5998C18.0752 17.7641 18.0267 17.8661 17.9463 17.9465C17.8659 18.0269 17.7639 18.0754 17.5996 18.0754C17.4355 18.0753 17.3333 18.0268 17.2529 17.9465L12.3535 13.0461L12 12.6926L6.74609 17.9465C6.66571 18.0268 6.56362 18.0754 6.39941 18.0754C6.23551 18.0753 6.13402 18.0267 6.05371 17.9465C5.97331 17.8661 5.9248 17.7641 5.9248 17.5998C5.92484 17.4356 5.97334 17.3335 6.05371 17.2531L11.3066 12.0002L10.9531 11.6467L6.05371 6.74628C5.97331 6.66587 5.9248 6.56387 5.9248 6.3996C5.92488 6.23556 5.97337 6.13423 6.05371 6.05389C6.13405 5.97356 6.23537 5.92506 6.39941 5.92499C6.56368 5.92499 6.66569 5.97349 6.74609 6.05389L11.6465 10.9533L12 11.3068L17.2529 6.05389C17.3333 5.97352 17.4355 5.92503 17.5996 5.92499Z" fill="#02060A" stroke="#02060A"></path>
  </symbol>
  </svg>