<svg width="158" height="52" viewBox="0 0 158 52" fill="none" xmlns="http://www.w3.org/2000/svg">
<path d="M27.116 33.1465C27.0523 33.0216 27.0038 32.9254 26.954 32.8299C26.3408 31.653 24.8633 30.8887 23.5513 31.0695C22.4247 31.2246 21.4859 32.1613 21.1561 33.4837C20.8006 34.9097 21.0573 36.2844 21.5702 37.621C22.4069 39.8006 23.7318 41.6648 25.3637 43.3145C26.4924 44.4553 27.3925 44.436 28.5034 43.2754C30.0457 41.6638 31.2972 39.8544 32.1656 37.7921C32.6775 36.5771 33.0543 35.3256 33.1114 33.9969C33.1528 33.0373 33.0291 32.1131 32.483 31.2894C31.7893 30.2435 30.6482 29.9353 29.5259 30.4875C28.8281 30.8308 28.2766 31.3435 27.8412 31.9793C27.5916 32.3439 27.3735 32.7298 27.116 33.1465ZM48.8371 39.2735C48.8114 41.0707 48.4065 42.7828 47.5789 44.3736C46.1745 47.0727 44.143 49.1647 41.423 50.5671C38.742 51.9494 35.9944 52.1076 33.1868 51.0071C32.0473 50.5602 30.911 50.0988 29.7999 49.5867C27.781 48.6558 25.7705 48.6647 23.7059 49.4379C22.2558 49.981 20.7841 50.4762 19.2972 50.9063C17.7572 51.3519 16.172 51.5147 14.5653 51.3313C13.1763 51.1729 12.0028 50.5577 10.9861 49.6266C9.68942 48.4393 8.6518 47.0529 7.99708 45.4179C7.15794 43.3226 7.35955 41.3012 8.58126 39.392C9.53768 37.8972 10.829 36.7046 12.08 35.4708C12.9894 34.574 13.8797 33.6531 14.7174 32.6897C15.6838 31.5778 16.2609 30.2361 16.7393 28.8576C17.1834 27.5787 17.5866 26.2857 18.0248 25.0047C18.3415 24.0792 18.9224 23.3094 19.4965 22.5291C20.8786 20.6509 22.85 19.829 25.0268 19.3453C27.6071 18.7717 29.8557 19.5113 31.7746 21.2085C32.9553 22.2526 33.9773 23.4757 35.0762 24.613C36.9481 26.5501 38.9337 28.3592 41.1582 29.8873C42.2655 30.648 43.4277 31.3298 44.5259 32.1027C46.0971 33.2087 47.4228 34.5507 48.2318 36.3321C48.6555 37.2653 48.8229 38.2543 48.8371 39.2735Z" fill="#332C22"/>
<path d="M23.5021 12.6257C23.5064 14.0643 23.2515 15.6178 22.5697 17.0773C21.8403 18.6383 20.7847 19.8731 19.049 20.3535C17.6207 20.7491 16.3021 20.4305 15.0729 19.6626C13.4558 18.6528 12.3622 17.1872 11.5489 15.5017C10.3678 13.0538 9.9126 10.4642 10.1547 7.75802C10.2977 6.1594 10.7497 4.66514 11.6429 3.30599C13.1832 0.962106 15.9517 0.299619 18.3591 1.72593C19.9209 2.65137 21.015 4.00237 21.8469 5.58043C22.9806 7.73101 23.5207 10.0311 23.5021 12.6257Z" fill="#332C22"/>
<path d="M40.3142 8.33957C40.3168 11.2708 39.7757 13.7302 38.4424 15.9804C37.6969 17.2388 36.7434 18.3098 35.4251 18.9987C33.4982 20.0057 31.3767 19.6368 29.8639 18.062C28.6664 16.8155 28.0167 15.2981 27.6685 13.6375C27.0673 10.7666 27.3776 7.96218 28.3942 5.23445C28.8863 3.91427 29.6051 2.70612 30.6383 1.7315C31.5902 0.83343 32.675 0.129985 34.0266 0.0177295C35.7461 -0.125097 37.0961 0.603662 38.1755 1.89167C39.2879 3.21928 39.8435 4.79368 40.1192 6.47421C40.2381 7.19881 40.2739 7.93704 40.3142 8.33957Z" fill="#332C22"/>
<path d="M0 22.4697C0.0237918 21.1605 0.273644 19.9298 1.05202 18.8621C2.069 17.4666 3.49287 16.9519 5.17513 17.0573C6.87729 17.1639 8.32628 17.8992 9.62721 18.9365C11.9445 20.7842 13.477 23.1431 14.0867 26.0618C14.3566 27.353 14.3767 28.6563 13.9249 29.914C13.1484 32.0763 11.377 33.193 9.06822 33.0142C7.63185 32.903 6.36756 32.3287 5.2075 31.5111C2.70693 29.7484 1.09699 27.3525 0.281794 24.4238C0.106771 23.7951 0.0897841 23.1222 0 22.4697Z" fill="#332C22"/>
<path d="M52.6112 18.386C52.2237 22.4521 50.5695 25.5953 47.3615 27.8592C46.4705 28.4879 45.4686 28.8518 44.3742 28.9628C42.5237 29.1504 40.841 28.1086 40.1453 26.3259C39.5338 24.7587 39.5694 23.155 39.9541 21.5594C40.6942 18.488 42.3452 16.007 44.9397 14.1882C46.0881 13.3831 47.3912 13.0544 48.7923 13.1713C50.4212 13.3072 51.7982 14.5293 52.2742 16.3265C52.4667 17.0532 52.5216 17.8159 52.6112 18.386Z" fill="#332C22"/>
<path d="M128.879 31.8727H132.622L127.687 37.844L133.057 44.3279H129.202L124.111 38.0112V44.3279H120.713V31.8727H124.111V37.922L128.879 31.8727Z" fill="#332C22"/>
<path d="M118.364 38.078C118.364 39.1178 118.222 40.0388 117.94 40.8409C117.665 41.643 117.261 42.3226 116.726 42.8796C116.199 43.4292 115.56 43.8451 114.81 44.1274C114.067 44.4096 113.228 44.5507 112.292 44.5507C111.416 44.5507 110.61 44.4096 109.874 44.1274C109.147 43.8451 108.512 43.4292 107.969 42.8796C107.435 42.3226 107.019 41.643 106.722 40.8409C106.432 40.0388 106.287 39.1178 106.287 38.078C106.287 36.6966 106.532 35.5268 107.022 34.5687C107.513 33.6106 108.211 32.8828 109.117 32.3852C110.023 31.8875 111.104 31.6387 112.359 31.6387C113.525 31.6387 114.557 31.8875 115.456 32.3852C116.362 32.8828 117.071 33.6106 117.584 34.5687C118.104 35.5268 118.364 36.6966 118.364 38.078ZM109.752 38.078C109.752 38.895 109.841 39.582 110.019 40.139C110.197 40.6961 110.476 41.1157 110.855 41.3979C111.234 41.6802 111.727 41.8213 112.336 41.8213C112.938 41.8213 113.425 41.6802 113.796 41.3979C114.175 41.1157 114.449 40.6961 114.62 40.139C114.799 39.582 114.888 38.895 114.888 38.078C114.888 37.2536 114.799 36.5703 114.62 36.0281C114.449 35.4785 114.175 35.0663 113.796 34.7915C113.417 34.5167 112.923 34.3793 112.314 34.3793C111.416 34.3793 110.762 34.6876 110.353 35.304C109.952 35.9204 109.752 36.8451 109.752 38.078Z" fill="#332C22"/>
<path d="M103.936 31.8727V44.3279H100.527V34.4239H96.0151V44.3279H92.6172V31.8727H103.936Z" fill="#332C22"/>
<path d="M84.3819 31.6164C86.053 31.6164 87.3342 31.9804 88.2254 32.7082C89.1167 33.4361 89.5623 34.5427 89.5623 36.0281V44.3279H87.1893L86.532 42.6345H86.4429C86.0864 43.0801 85.7225 43.4441 85.3511 43.7263C84.9798 44.0085 84.5527 44.2165 84.07 44.3502C83.5872 44.4839 83.0005 44.5507 82.3097 44.5507C81.5745 44.5507 80.9134 44.4096 80.3267 44.1274C79.7474 43.8451 79.2906 43.4144 78.9564 42.8351C78.6222 42.2483 78.4551 41.5056 78.4551 40.6069C78.4551 39.2849 78.9193 38.312 79.8477 37.6881C80.776 37.0568 82.1686 36.7077 84.0254 36.6409L86.1867 36.574V36.0281C86.1867 35.3745 86.0159 34.8955 85.6742 34.591C85.3326 34.2865 84.8572 34.1342 84.2482 34.1342C83.6466 34.1342 83.0562 34.2196 82.4768 34.3905C81.8975 34.5613 81.3182 34.7767 80.7389 35.0366L79.6137 32.7416C80.2747 32.3926 81.0137 32.1178 81.8307 31.9172C82.6551 31.7167 83.5055 31.6164 84.3819 31.6164ZM86.1867 38.5571L84.8721 38.6016C83.7729 38.6313 83.0079 38.8281 82.5771 39.1921C82.1538 39.556 81.9421 40.035 81.9421 40.6292C81.9421 41.1491 82.0943 41.5205 82.3989 41.7433C82.7034 41.9587 83.1007 42.0663 83.5909 42.0663C84.3188 42.0663 84.9315 41.851 85.4291 41.4202C85.9342 40.9894 86.1867 40.3767 86.1867 39.582V38.5571Z" fill="#332C22"/>
<path d="M75.8922 44.328H72.4497V30.9146H68.4614C68.3723 31.6128 68.2757 32.3741 68.1717 33.1985C68.0678 34.0229 67.9601 34.8547 67.8487 35.694C67.7373 36.5332 67.6184 37.3316 67.4922 38.0892C67.3733 38.8468 67.2545 39.5115 67.1357 40.0834C66.9426 41.034 66.6789 41.8436 66.3447 42.512C66.0179 43.173 65.5685 43.6781 64.9967 44.0272C64.4322 44.3762 63.6932 44.5508 62.7797 44.5508C62.4752 44.5508 62.1818 44.5285 61.8996 44.4839C61.6248 44.4394 61.3685 44.3799 61.1309 44.3057V41.476C61.324 41.5428 61.5171 41.5985 61.7102 41.6431C61.9033 41.6802 62.1149 41.6988 62.3452 41.6988C62.6423 41.6988 62.8874 41.6022 63.0805 41.4091C63.281 41.2086 63.4593 40.8706 63.6152 40.3953C63.7712 39.9126 63.9272 39.2478 64.0831 38.4011C64.15 38.0298 64.2391 37.5062 64.3505 36.8303C64.4619 36.147 64.5882 35.3486 64.7293 34.4351C64.8704 33.5141 65.0152 32.5115 65.1638 31.4271C65.3197 30.3428 65.4683 29.2138 65.6094 28.0404H75.8922V44.328Z" fill="#332C22"/>
<path d="M152.421 10.757C154.092 10.757 155.373 11.1209 156.264 11.8488C157.156 12.5766 157.601 13.6833 157.601 15.1687V23.4684H155.228L154.571 21.7751H154.482C154.125 22.2207 153.762 22.5846 153.39 22.8669C153.019 23.1491 152.592 23.357 152.109 23.4907C151.626 23.6244 151.04 23.6913 150.349 23.6913C149.614 23.6913 148.953 23.5501 148.366 23.2679C147.786 22.9857 147.33 22.5549 146.995 21.9756C146.661 21.3889 146.494 20.6462 146.494 19.7475C146.494 18.4255 146.958 17.4525 147.887 16.8286C148.815 16.1973 150.208 15.8483 152.064 15.7814L154.226 15.7146V15.1687C154.226 14.5151 154.055 14.036 153.713 13.7315C153.372 13.427 152.896 13.2748 152.287 13.2748C151.686 13.2748 151.095 13.3602 150.516 13.531C149.937 13.7018 149.357 13.9172 148.778 14.1772L147.653 11.8822C148.314 11.5331 149.053 11.2583 149.87 11.0578C150.694 10.8573 151.545 10.757 152.421 10.757ZM154.226 17.6976L152.911 17.7422C151.812 17.7719 151.047 17.9687 150.616 18.3326C150.193 18.6965 149.981 19.1756 149.981 19.7698C149.981 20.2897 150.133 20.661 150.438 20.8838C150.742 21.0992 151.14 21.2069 151.63 21.2069C152.358 21.2069 152.971 20.9915 153.468 20.5607C153.973 20.13 154.226 19.5172 154.226 18.7225V17.6976Z" fill="#332C22"/>
<path d="M141.815 11.0132H145.558L140.622 16.9846L145.992 23.4684H142.138L137.046 17.1517V23.4684H133.648V11.0132H137.046V17.0626L141.815 11.0132Z" fill="#332C22"/>
<path d="M122.396 11.0132V15.8037H127.142V11.0132H130.54V23.4684H127.142V18.3326H122.396V23.4684H118.998V11.0132H122.396Z" fill="#332C22"/>
<path d="M106.296 11.0132V15.9374C106.296 16.1899 106.285 16.5093 106.263 16.8955C106.248 17.2742 106.226 17.6605 106.196 18.0541C106.166 18.4477 106.137 18.8005 106.107 19.1124C106.077 19.4244 106.055 19.6361 106.04 19.7475L111.789 11.0132H115.877V23.4684H112.591V18.4997C112.591 18.0912 112.606 17.6419 112.635 17.1517C112.665 16.6541 112.698 16.1862 112.736 15.748C112.773 15.3098 112.799 14.9793 112.814 14.7565L107.087 23.4684H103.01V11.0132H106.296Z" fill="#332C22"/>
<path d="M101.14 13.5644H97.0627V23.4684H93.6648V13.5644H89.5762V11.0132H101.14V13.5644Z" fill="#332C22"/>
<path d="M82.6006 10.757C84.2717 10.757 85.5529 11.1209 86.4442 11.8488C87.3354 12.5766 87.781 13.6833 87.781 15.1687V23.4684H85.4081L84.7508 21.7751H84.6617C84.3052 22.2207 83.9412 22.5846 83.5699 22.8669C83.1985 23.1491 82.7715 23.357 82.2887 23.4907C81.8059 23.6244 81.2192 23.6913 80.5285 23.6913C79.7932 23.6913 79.1322 23.5501 78.5455 23.2679C77.9661 22.9857 77.5094 22.5549 77.1752 21.9756C76.8409 21.3889 76.6738 20.6462 76.6738 19.7475C76.6738 18.4255 77.138 17.4525 78.0664 16.8286C78.9948 16.1973 80.3874 15.8483 82.2441 15.7814L84.4054 15.7146V15.1687C84.4054 14.5151 84.2346 14.036 83.893 13.7315C83.5513 13.427 83.076 13.2748 82.467 13.2748C81.8654 13.2748 81.2749 13.3602 80.6956 13.531C80.1163 13.7018 79.537 13.9172 78.9577 14.1772L77.8325 11.8822C78.4935 11.5331 79.2325 11.2583 80.0494 11.0578C80.8738 10.8573 81.7242 10.757 82.6006 10.757ZM84.4054 17.6976L83.0908 17.7422C81.9916 17.7719 81.2266 17.9687 80.7959 18.3326C80.3725 18.6965 80.1608 19.1756 80.1608 19.7698C80.1608 20.2897 80.3131 20.661 80.6176 20.8838C80.9221 21.0992 81.3195 21.2069 81.8097 21.2069C82.5375 21.2069 83.1502 20.9915 83.6479 20.5607C84.1529 20.13 84.4054 19.5172 84.4054 18.7225V17.6976Z" fill="#332C22"/>
<path d="M76.1732 23.4685H72.2294L68.4416 17.3077L64.6538 23.4685H60.9551L66.3583 15.0685L61.3004 7.18091H65.1105L68.6198 13.0409L72.0623 7.18091H75.7833L70.6697 15.2579L76.1732 23.4685Z" fill="#332C22"/>
</svg>
