<svg width="24" height="24" viewBox="0 0 24 24" fill="none" xmlns="http://www.w3.org/2000/svg">
<path d="M3.70136 18.2212C3.46086 18.2212 3.25878 18.139 3.09511 17.9745C2.93144 17.81 2.84961 17.6049 2.84961 17.3592C2.84961 17.1176 2.93144 16.9159 3.09511 16.7542C3.25878 16.5927 3.46086 16.512 3.70136 16.512H20.2969C20.5374 16.512 20.7404 16.5942 20.9061 16.7587C21.0718 16.9232 21.1546 17.1263 21.1546 17.368C21.1546 17.6137 21.0718 17.8172 20.9061 17.9787C20.7404 18.1404 20.5374 18.2212 20.2969 18.2212H3.70136ZM3.70136 12.8517C3.46086 12.8517 3.25878 12.7694 3.09511 12.6047C2.93144 12.4402 2.84961 12.2372 2.84961 11.9955C2.84961 11.754 2.93144 11.5524 3.09511 11.3907C3.25878 11.2291 3.46086 11.1482 3.70136 11.1482H20.2969C20.5374 11.1482 20.7404 11.2306 20.9061 11.3952C21.0718 11.5597 21.1546 11.7628 21.1546 12.0045C21.1546 12.246 21.0718 12.4476 20.9061 12.6092C20.7404 12.7709 20.5374 12.8517 20.2969 12.8517H3.70136ZM3.70136 7.488C3.46086 7.488 3.25878 7.40575 3.09511 7.24125C2.93144 7.07675 2.84961 6.87166 2.84961 6.626C2.84961 6.38433 2.93144 6.18275 3.09511 6.02125C3.25878 5.85958 3.46086 5.77875 3.70136 5.77875H20.2969C20.5374 5.77875 20.7404 5.861 20.9061 6.0255C21.0718 6.19 21.1546 6.39308 21.1546 6.63475C21.1546 6.88041 21.0718 7.08408 20.9061 7.24575C20.7404 7.40725 20.5374 7.488 20.2969 7.488H3.70136Z" fill="#02060A"/>
</svg>
